<svg width="662" height="662" viewBox="0 0 662 662" fill="none" xmlns="http://www.w3.org/2000/svg">
<path d="M661.5 331C661.5 513.53 513.53 661.5 331 661.5C148.47 661.5 0.5 513.53 0.5 331C0.5 148.47 148.47 0.5 331 0.5C513.53 0.5 661.5 148.47 661.5 331ZM466.035 331.922C466.035 405.99 405.99 466.035 331.922 466.035C257.854 466.035 197.809 405.99 197.809 331.922C197.809 257.854 257.854 197.809 331.922 197.809C405.99 197.809 466.035 257.854 466.035 331.922ZM331.922 467.035C406.543 467.035 467.035 406.543 467.035 331.922C467.035 257.301 406.543 196.809 331.922 196.809C257.301 196.809 196.809 257.301 196.809 331.922C196.809 406.543 257.301 467.035 331.922 467.035ZM346.174 331C346.174 339.38 339.38 346.174 331 346.174C322.62 346.174 315.826 339.38 315.826 331C315.826 322.62 322.62 315.826 331 315.826C339.38 315.826 346.174 322.62 346.174 331ZM331 347.174C339.933 347.174 347.174 339.933 347.174 331C347.174 322.067 339.933 314.826 331 314.826C322.067 314.826 314.826 322.067 314.826 331C314.826 339.933 322.067 347.174 331 347.174ZM611.712 331.922C611.712 487.464 485.62 613.556 330.078 613.556C174.536 613.556 48.4443 487.464 48.4443 331.922C48.4443 176.38 174.536 50.2883 330.078 50.2883C485.62 50.2883 611.712 176.38 611.712 331.922ZM330.078 614.556C486.172 614.556 612.712 488.016 612.712 331.922C612.712 175.828 486.172 49.2883 330.078 49.2883C173.984 49.2883 47.4443 175.828 47.4443 331.922C47.4443 488.016 173.984 614.556 330.078 614.556ZM565.611 331.922C565.611 462.004 460.16 567.455 330.078 567.455C199.996 567.455 94.5446 462.004 94.5446 331.922C94.5446 201.84 199.996 96.3886 330.078 96.3886C460.16 96.3886 565.611 201.84 565.611 331.922ZM330.078 568.455C460.712 568.455 566.611 462.556 566.611 331.922C566.611 201.288 460.712 95.3886 330.078 95.3886C199.444 95.3886 93.5446 201.288 93.5446 331.922C93.5446 462.556 199.444 568.455 330.078 568.455ZM525.043 331C525.043 438.167 438.167 525.043 331 525.043C223.833 525.043 136.957 438.167 136.957 331C136.957 223.833 223.833 136.957 331 136.957C438.167 136.957 525.043 223.833 525.043 331ZM331 526.043C438.719 526.043 526.043 438.719 526.043 331C526.043 223.281 438.719 135.957 331 135.957C223.281 135.957 135.957 223.281 135.957 331C135.957 438.719 223.281 526.043 331 526.043Z" stroke="#393939"/>
</svg>
